<?xml version="1.0" encoding="UTF-8" standalone="no"?>
<!-- Created with Inkscape (http://www.inkscape.org/) -->

<svg
   xmlns:dc="http://purl.org/dc/elements/1.1/"
   xmlns:cc="http://creativecommons.org/ns#"
   xmlns:rdf="http://www.w3.org/1999/02/22-rdf-syntax-ns#"
   xmlns:svg="http://www.w3.org/2000/svg"
   xmlns="http://www.w3.org/2000/svg"
   xmlns:xlink="http://www.w3.org/1999/xlink"
   xmlns:sodipodi="http://sodipodi.sourceforge.net/DTD/sodipodi-0.dtd"
   xmlns:inkscape="http://www.inkscape.org/namespaces/inkscape"
   id="diagram"
   version="1.1"
   inkscape:version="0.48.4 r9939"
   sodipodi:docname="finale.svg"
   height="100%"
   preserveAspectRatio="xMidYMid slice"
   viewBox="0 0 1920 1080"
   width="100%"
   inkscape:export-filename="/home/bcopy/workspace/logic-gates/modules/display/src/main/webapp/finale.png"
   inkscape:export-xdpi="90"
   inkscape:export-ydpi="90">
  <sodipodi:namedview
     id="base"
     pagecolor="#ffffff"
     bordercolor="#666666"
     borderopacity="1.0"
     inkscape:pageopacity="0.0"
     inkscape:pageshadow="2"
     inkscape:zoom="0.32"
     inkscape:cx="1285.5345"
     inkscape:cy="614.45829"
     inkscape:document-units="px"
     inkscape:current-layer="completed-success"
     showgrid="true"
     inkscape:window-width="1920"
     inkscape:window-height="1023"
     inkscape:window-x="0"
     inkscape:window-y="33"
     inkscape:window-maximized="1"
     showguides="true"
     inkscape:guide-bbox="true" />
  <defs
     id="defs4">
    <linearGradient
       id="linearGradient5667">
      <stop
         style="stop-color:#d6412e;stop-opacity:1;"
         offset="0"
         id="stop5669" />
      <stop
         style="stop-color:#d6412e;stop-opacity:0;"
         offset="1"
         id="stop5671" />
    </linearGradient>
    <marker
       style="overflow:visible"
       id="TriangleOutM"
       refX="0"
       refY="0"
       orient="auto"
       inkscape:stockid="TriangleOutM">
      <path
         transform="scale(0.4,0.4)"
         style="fill-rule:evenodd;stroke:#000000;stroke-width:1pt"
         d="m 5.77,0 -8.65,5 0,-10 8.65,5 z"
         id="path3980"
         inkscape:connector-curvature="0" />
    </marker>
    <marker
       style="overflow:visible"
       id="TriangleOutL"
       refX="0"
       refY="0"
       orient="auto"
       inkscape:stockid="TriangleOutL">
      <path
         transform="scale(0.8,0.8)"
         style="fill-rule:evenodd;stroke:#000000;stroke-width:1pt"
         d="m 5.77,0 -8.65,5 0,-10 8.65,5 z"
         id="path3977"
         inkscape:connector-curvature="0" />
    </marker>
    <marker
       inkscape:stockid="Arrow1Mend"
       orient="auto"
       refY="0"
       refX="0"
       id="Arrow1Mend"
       style="overflow:visible">
      <path
         id="path3844"
         d="M 0,0 5,-5 -12.5,0 5,5 0,0 z"
         style="fill-rule:evenodd;stroke:#000000;stroke-width:1pt"
         transform="matrix(-0.4,0,0,-0.4,-4,0)"
         inkscape:connector-curvature="0" />
    </marker>
    <marker
       inkscape:stockid="Arrow2Lend"
       orient="auto"
       refY="0"
       refX="0"
       id="Arrow2Lend"
       style="overflow:visible">
      <path
         id="path3856"
         style="fill-rule:evenodd;stroke-width:0.625;stroke-linejoin:round"
         d="M 8.7185878,4.0337352 -2.2072895,0.01601326 8.7185884,-4.0017078 c -1.7454984,2.3720609 -1.7354408,5.6174519 -6e-7,8.035443 z"
         transform="matrix(-1.1,0,0,-1.1,-1.1,0)"
         inkscape:connector-curvature="0" />
    </marker>
    <inkscape:perspective
       sodipodi:type="inkscape:persp3d"
       inkscape:vp_x="0 : 540 : 1"
       inkscape:vp_y="0 : 1000 : 0"
       inkscape:vp_z="1920 : 540 : 1"
       inkscape:persp3d-origin="960 : 360 : 1"
       id="perspective2985" />
    <marker
       inkscape:stockid="Arrow1MendB"
       orient="auto"
       refY="0"
       refX="0"
       id="Arrow1MendB"
       style="overflow:visible">
      <path
         id="path4469"
         d="M 0,0 5,-5 -12.5,0 5,5 0,0 z"
         style="fill:#ffff00;fill-rule:evenodd;stroke:#ffff00;stroke-width:1pt"
         transform="matrix(-0.4,0,0,-0.4,-4,0)"
         inkscape:connector-curvature="0" />
    </marker>
    <marker
       style="overflow:visible"
       id="TriangleOutMz"
       refX="0"
       refY="0"
       orient="auto"
       inkscape:stockid="TriangleOutMz">
      <path
         transform="scale(0.4,0.4)"
         style="fill:#ffff00;fill-rule:evenodd;stroke:#ffff00;stroke-width:1pt"
         d="m 5.77,0 -8.65,5 0,-10 8.65,5 z"
         id="path4907"
         inkscape:connector-curvature="0" />
    </marker>
    <radialGradient
       gradientUnits="userSpaceOnUse"
       r="4.4299002"
       cy="327.13959"
       cx="58.209999"
       id="SVGID_58_">
      <stop
         id="stop1309"
         style="stop-color:#CF3330"
         offset="0" />
      <stop
         id="stop1311"
         style="stop-color:#CF3330;stop-opacity:0"
         offset="1" />
    </radialGradient>
    <radialGradient
       id="radialGradient4460"
       cx="58.209999"
       cy="327.13959"
       r="4.4299002"
       gradientUnits="userSpaceOnUse">
      <stop
         offset="0"
         style="stop-color:#CF3330"
         id="stop4462" />
      <stop
         offset="1"
         style="stop-color:#CF3330;stop-opacity:0"
         id="stop4464" />
    </radialGradient>
    <clipPath
       id="SVGID_67_">
      <use
         id="use1460"
         overflow="visible"
         xlink:href="#SVGID_66_"
         style="overflow:visible"
         x="0"
         y="0"
         width="841.89001"
         height="595.28003" />
    </clipPath>
    <clipPath
       id="SVGID_67_-4">
      <use
         id="use1460-9"
         overflow="visible"
         xlink:href="#SVGID_66_"
         style="overflow:visible"
         x="0"
         y="0"
         width="841.89001"
         height="595.28003" />
    </clipPath>
    <clipPath
       id="SVGID_67_-9">
      <use
         id="use1460-1"
         overflow="visible"
         xlink:href="#SVGID_66_"
         style="overflow:visible"
         x="0"
         y="0"
         width="841.89001"
         height="595.28003" />
    </clipPath>
    <radialGradient
       inkscape:collect="always"
       xlink:href="#radialGradient4460"
       id="radialGradient5737"
       gradientUnits="userSpaceOnUse"
       gradientTransform="matrix(-0.78336135,0.84361935,-0.73279376,-0.68045082,344.13934,499.48699)"
       cx="59.285416"
       cy="326.77643"
       fx="59.285416"
       fy="326.77643"
       r="5.3740001" />
    <radialGradient
       inkscape:collect="always"
       xlink:href="#radialGradient4460"
       id="radialGradient5771"
       gradientUnits="userSpaceOnUse"
       gradientTransform="matrix(-0.78336135,0.84361935,-0.73279376,-0.68045082,344.13934,499.48699)"
       cx="59.285416"
       cy="326.77643"
       fx="59.285416"
       fy="326.77643"
       r="5.3740001" />
    <radialGradient
       inkscape:collect="always"
       xlink:href="#radialGradient4460"
       id="radialGradient4280"
       gradientUnits="userSpaceOnUse"
       gradientTransform="matrix(-0.78336135,0.84361935,-0.73279376,-0.68045082,344.13934,499.48699)"
       cx="59.285416"
       cy="326.77643"
       fx="59.285416"
       fy="326.77643"
       r="5.3740001" />
    <radialGradient
       inkscape:collect="always"
       xlink:href="#radialGradient4460"
       id="radialGradient4286"
       gradientUnits="userSpaceOnUse"
       gradientTransform="matrix(-0.78336135,0.84361935,-0.73279376,-0.68045082,344.13934,499.48699)"
       cx="59.285416"
       cy="326.77643"
       fx="59.285416"
       fy="326.77643"
       r="5.3740001" />
  </defs>
  <metadata
     id="metadata7">
    <rdf:RDF>
      <cc:Work
         rdf:about="">
        <dc:format>image/svg+xml</dc:format>
        <dc:type
           rdf:resource="http://purl.org/dc/dcmitype/StillImage" />
        <dc:title></dc:title>
      </cc:Work>
    </rdf:RDF>
  </metadata>
  <g
     inkscape:label="background"
     inkscape:groupmode="layer"
     id="layer1"
     transform="translate(0,27.637817)"
     style="display:inline">
    <path
       style="opacity:0.2;fill:#d71f27;display:inline"
       inkscape:connector-curvature="0"
       id="path3509"
       d="M 1471.252,34.591038 C 1341.2139,37.739494 984.88297,39.316447 944.8989,39.475244 904.92077,39.316447 548.62516,37.739494 418.58102,34.591038 261.31989,30.785498 173.88765,2.4877048 173.88765,2.4877048 V 56.903995 c 0,0 10.18055,9.790347 31.45103,9.790347 1.36408,0 2.8522,0 4.34031,0 v 27.202651 h 36.97241 v 56.584627 h 189.53301 v 118.61195 h -34.62214 v 25.02888 h -155.5014 v 52.23702 h 190.12354 v 718.21503 h 55.1604 V 346.35399 h 907.16129 v 718.21521 h 55.1546 V 346.35399 h 190.1115 V 294.11698 H 1488.2649 V 269.0881 h -34.6104 V 150.48162 h 189.5273 V 93.896993 h 36.9663 V 66.694342 c 1.5,0 2.9879,0 4.346,0 21.2705,0 31.4512,-9.790347 31.4512,-9.790347 V 2.4877048 c 0,0 -87.4321,28.2923152 -244.6933,32.1033332 z M 491.33887,269.09357 V 150.48162 H 917.61691 V 294.12245 H 528.30539 v -25.02888 h -36.96652 z m 907.15533,0 h -36.9784 v 25.02888 H 972.18082 V 150.48162 h 426.30748 v 118.61195 z" />
    <g
       style="display:inline"
       transform="matrix(2.8108132,0,0,2.8108132,-192.23933,571.923)"
       id="g111"
       inkscape:export-filename="/home/bcopy/workspace/logic-gates/modules/display/src/main/webapp/path207.png"
       inkscape:export-xdpi="90"
       inkscape:export-ydpi="90">
      <g
         id="g113">
        <g
           id="g115">
          <path
             style="fill:#cf3330"
             inkscape:connector-curvature="0"
             d="m 636.65,150.339 -0.922,-1.33 h 0.878 l 0.496,0.732 0.488,-0.732 h 0.852 l -0.923,1.312 1.036,1.494 h -0.878 l -0.585,-0.887 -0.587,0.887 h -0.865 l 1.01,-1.476 z"
             id="path117" />
          <path
             style="fill:#ffffff"
             inkscape:connector-curvature="0"
             d="m 642.21,150.153 h -2.742 v -0.58 h 2.742 v 0.58 z m 0,1.162 h -2.742 v -0.58 h 2.742 v 0.58 z"
             id="path119" />
          <path
             style="fill:#ffffff"
             inkscape:connector-curvature="0"
             d="m 644.31,148.575 h -0.771 v -0.635 h 0.771 v 0.635 z m -0.771,0.434 h 0.771 v 2.807 h -0.771 v -2.807 z"
             id="path121" />
          <path
             style="fill:#ffffff"
             inkscape:connector-curvature="0"
             d="m 644.811,149.009 h 0.731 v 0.391 h 0.016 c 0.196,-0.314 0.533,-0.465 0.858,-0.465 0.819,0 1.025,0.459 1.025,1.154 v 1.727 h -0.771 v -1.586 c 0,-0.463 -0.136,-0.689 -0.492,-0.689 -0.418,0 -0.6,0.232 -0.6,0.803 v 1.473 h -0.768 v -2.808 z"
             id="path123" />
          <path
             style="fill:#ffffff"
             inkscape:connector-curvature="0"
             d="m 649.921,151.456 h -0.012 c -0.179,0.305 -0.492,0.436 -0.851,0.436 -0.848,0 -1.259,-0.73 -1.259,-1.504 0,-0.756 0.417,-1.453 1.243,-1.453 0.332,0 0.655,0.139 0.835,0.416 h -0.005 0.009 v -1.41 h 0.773 v 3.875 h -0.734 v -0.36 z m -0.675,-1.943 c -0.502,0 -0.677,0.436 -0.677,0.896 0,0.439 0.2,0.898 0.677,0.898 0.513,0 0.663,-0.443 0.663,-0.904 0,-0.455 -0.162,-0.89 -0.663,-0.89 z"
             id="path125" />
          <path
             style="fill:#ffffff"
             inkscape:connector-curvature="0"
             d="m 651.761,150.599 c 0.023,0.488 0.262,0.709 0.69,0.709 0.308,0 0.558,-0.188 0.608,-0.361 h 0.676 c -0.215,0.662 -0.676,0.945 -1.311,0.945 -0.884,0 -1.435,-0.609 -1.435,-1.477 0,-0.842 0.58,-1.48 1.435,-1.48 0.953,0 1.416,0.803 1.362,1.664 h -2.025 z m 1.252,-0.489 c -0.068,-0.391 -0.235,-0.598 -0.612,-0.598 -0.487,0 -0.629,0.381 -0.64,0.598 h 1.252 z"
             id="path127" />
          <path
             style="fill:#ffffff"
             inkscape:connector-curvature="0"
             d="m 654.134,149.009 h 0.73 v 0.357 h 0.012 c 0.186,-0.299 0.488,-0.432 0.838,-0.432 0.878,0 1.274,0.707 1.274,1.506 0,0.75 -0.413,1.451 -1.231,1.451 -0.336,0 -0.658,-0.146 -0.842,-0.424 h -0.011 v 1.334 h -0.771 v -3.792 z m 2.082,1.41 c 0,-0.443 -0.179,-0.906 -0.67,-0.906 -0.508,0 -0.67,0.451 -0.67,0.906 0,0.457 0.175,0.889 0.674,0.889 0.503,0 0.666,-0.432 0.666,-0.889 z"
             id="path129" />
          <path
             style="fill:#ffffff"
             inkscape:connector-curvature="0"
             d="m 657.975,150.599 c 0.024,0.488 0.26,0.709 0.691,0.709 0.308,0 0.56,-0.188 0.606,-0.361 h 0.678 c -0.215,0.662 -0.678,0.945 -1.312,0.945 -0.885,0 -1.434,-0.609 -1.434,-1.477 0,-0.842 0.581,-1.48 1.434,-1.48 0.955,0 1.416,0.803 1.363,1.664 h -2.026 z m 1.255,-0.489 c -0.071,-0.391 -0.239,-0.598 -0.615,-0.598 -0.489,0 -0.628,0.381 -0.641,0.598 h 1.256 z"
             id="path131" />
          <path
             style="fill:#ffffff"
             inkscape:connector-curvature="0"
             d="m 660.348,149.009 h 0.733 v 0.391 h 0.016 c 0.195,-0.314 0.53,-0.465 0.855,-0.465 0.822,0 1.029,0.459 1.029,1.154 v 1.727 h -0.773 v -1.586 c 0,-0.463 -0.135,-0.689 -0.491,-0.689 -0.419,0 -0.6,0.232 -0.6,0.803 v 1.473 h -0.77 v -2.808 z"
             id="path133" />
          <path
             style="fill:#ffffff"
             inkscape:connector-curvature="0"
             d="m 665.461,151.456 h -0.012 c -0.179,0.305 -0.496,0.436 -0.852,0.436 -0.848,0 -1.262,-0.73 -1.262,-1.504 0,-0.756 0.418,-1.453 1.246,-1.453 0.33,0 0.656,0.139 0.835,0.416 h -0.008 0.013 v -1.41 h 0.771 v 3.875 h -0.731 v -0.36 z m -0.674,-1.943 c -0.503,0 -0.679,0.436 -0.679,0.896 0,0.439 0.201,0.898 0.679,0.898 0.511,0 0.662,-0.443 0.662,-0.904 0,-0.455 -0.163,-0.89 -0.662,-0.89 z"
             id="path135" />
          <path
             style="fill:#ffffff"
             inkscape:connector-curvature="0"
             d="m 667.299,150.599 c 0.022,0.488 0.263,0.709 0.69,0.709 0.309,0 0.559,-0.188 0.606,-0.361 h 0.679 c -0.217,0.662 -0.679,0.945 -1.314,0.945 -0.882,0 -1.431,-0.609 -1.431,-1.477 0,-0.842 0.581,-1.48 1.431,-1.48 0.958,0 1.418,0.803 1.364,1.664 h -2.025 z m 1.253,-0.489 c -0.07,-0.391 -0.238,-0.598 -0.613,-0.598 -0.486,0 -0.629,0.381 -0.64,0.598 h 1.253 z"
             id="path137" />
          <path
             style="fill:#ffffff"
             inkscape:connector-curvature="0"
             d="m 669.672,149.009 h 0.732 v 0.391 h 0.016 c 0.195,-0.314 0.532,-0.465 0.858,-0.465 0.818,0 1.026,0.459 1.026,1.154 v 1.727 h -0.772 v -1.586 c 0,-0.463 -0.135,-0.689 -0.493,-0.689 -0.417,0 -0.599,0.232 -0.599,0.803 v 1.473 h -0.769 v -2.808 z"
             id="path139" />
          <path
             style="fill:#ffffff"
             inkscape:connector-curvature="0"
             d="m 673.758,149.009 h 0.563 v 0.516 h -0.563 v 1.389 c 0,0.262 0.067,0.326 0.326,0.326 0.08,0 0.158,-0.006 0.237,-0.021 v 0.604 c -0.13,0.02 -0.298,0.025 -0.449,0.025 -0.472,0 -0.885,-0.109 -0.885,-0.668 v -1.654 h -0.466 v -0.516 h 0.466 v -0.84 h 0.771 v 0.839 z"
             id="path141" />
          <path
             style="fill:#ffffff"
             inkscape:connector-curvature="0"
             d="m 674.604,147.94 h 0.771 v 3.875 h -0.771 v -3.875 z"
             id="path143" />
          <path
             style="fill:#ffffff"
             inkscape:connector-curvature="0"
             d="m 677.259,152.167 c -0.167,0.451 -0.434,0.635 -0.966,0.635 -0.156,0 -0.313,-0.01 -0.471,-0.025 v -0.637 c 0.145,0.012 0.296,0.033 0.448,0.027 0.267,-0.027 0.354,-0.305 0.267,-0.525 l -0.988,-2.633 h 0.827 l 0.633,1.92 h 0.011 l 0.613,-1.92 h 0.798 l -1.172,3.158 z"
             id="path145" />
          <path
             style="fill:#ffffff"
             inkscape:connector-curvature="0"
             d="m 681.347,148.935 c 0.883,0 1.455,0.584 1.455,1.48 0,0.889 -0.572,1.477 -1.455,1.477 -0.881,0 -1.45,-0.588 -1.45,-1.477 -0.001,-0.896 0.569,-1.48 1.45,-1.48 z m 0,2.373 c 0.524,0 0.681,-0.447 0.681,-0.893 0,-0.451 -0.156,-0.902 -0.681,-0.902 -0.523,0 -0.681,0.451 -0.681,0.902 0,0.445 0.157,0.893 0.681,0.893 z"
             id="path147" />
          <path
             style="fill:#ffffff"
             inkscape:connector-curvature="0"
             d="m 683.083,149.009 h 0.733 v 0.521 h 0.01 c 0.14,-0.354 0.521,-0.596 0.896,-0.596 0.054,0 0.119,0.01 0.169,0.025 v 0.717 c -0.071,-0.018 -0.185,-0.027 -0.277,-0.027 -0.564,0 -0.76,0.408 -0.76,0.9 v 1.266 h -0.771 v -2.806 z"
             id="path149" />
          <path
             style="fill:#ffffff"
             inkscape:connector-curvature="0"
             d="m 687.781,151.634 c 0,0.463 -0.161,1.246 -1.452,1.246 -0.554,0 -1.199,-0.262 -1.239,-0.902 h 0.767 c 0.071,0.287 0.303,0.387 0.573,0.387 0.43,0 0.627,-0.295 0.62,-0.697 V 151.3 h -0.01 c -0.17,0.293 -0.507,0.434 -0.842,0.434 -0.843,0 -1.203,-0.641 -1.203,-1.412 0,-0.727 0.42,-1.387 1.209,-1.387 0.367,0 0.649,0.123 0.836,0.447 h 0.01 v -0.373 h 0.731 v 2.625 z m -0.731,-1.258 c 0,-0.457 -0.156,-0.863 -0.656,-0.863 -0.437,0 -0.623,0.381 -0.623,0.799 0,0.402 0.15,0.842 0.623,0.842 0.439,-0.001 0.656,-0.376 0.656,-0.778 z"
             id="path151" />
          <path
             style="fill:#ffffff"
             inkscape:connector-curvature="0"
             d="m 688.151,149.872 c 0.043,-0.723 0.689,-0.938 1.318,-0.938 0.56,0 1.234,0.123 1.234,0.797 v 1.459 c 0,0.256 0.027,0.512 0.096,0.625 h -0.779 c -0.027,-0.088 -0.051,-0.182 -0.056,-0.271 -0.246,0.254 -0.604,0.348 -0.945,0.348 -0.531,0 -0.954,-0.268 -0.954,-0.842 0,-0.635 0.478,-0.789 0.954,-0.854 0.474,-0.07 0.913,-0.053 0.913,-0.369 0,-0.33 -0.229,-0.381 -0.502,-0.381 -0.292,0 -0.482,0.121 -0.51,0.426 h -0.769 z m 1.782,0.568 c -0.131,0.113 -0.4,0.121 -0.64,0.162 -0.241,0.051 -0.457,0.133 -0.457,0.414 0,0.287 0.224,0.359 0.474,0.359 0.601,0 0.623,-0.479 0.623,-0.646 v -0.289 z"
             id="path153" />
          <path
             style="fill:#ffffff"
             inkscape:connector-curvature="0"
             d="m 691.19,149.009 h 0.733 v 0.391 h 0.016 c 0.195,-0.314 0.533,-0.465 0.858,-0.465 0.819,0 1.025,0.459 1.025,1.154 v 1.727 h -0.771 v -1.586 c 0,-0.463 -0.136,-0.689 -0.493,-0.689 -0.42,0 -0.599,0.232 -0.599,0.803 v 1.473 h -0.771 v -2.808 z"
             id="path155" />
          <path
             style="fill:#ffffff"
             inkscape:connector-curvature="0"
             d="m 694.984,148.575 h -0.771 v -0.635 h 0.771 v 0.635 z m -0.771,0.434 h 0.771 v 2.807 h -0.771 v -2.807 z"
             id="path157" />
          <path
             style="fill:#ffffff"
             inkscape:connector-curvature="0"
             d="m 695.311,151.233 1.458,-1.645 h -1.349 v -0.58 h 2.367 v 0.58 l -1.463,1.645 h 1.565 v 0.582 h -2.579 v -0.582 z"
             id="path159" />
          <path
             style="fill:#ffffff"
             inkscape:connector-curvature="0"
             d="m 698.826,150.599 c 0.021,0.488 0.262,0.709 0.691,0.709 0.308,0 0.559,-0.188 0.607,-0.361 h 0.676 c -0.214,0.662 -0.676,0.945 -1.311,0.945 -0.886,0 -1.436,-0.609 -1.436,-1.477 0,-0.842 0.582,-1.48 1.436,-1.48 0.954,0 1.417,0.803 1.362,1.664 h -2.025 z m 1.253,-0.489 c -0.068,-0.391 -0.238,-0.598 -0.61,-0.598 -0.49,0 -0.63,0.381 -0.643,0.598 h 1.253 z"
             id="path161" />
          <path
             style="fill:#ffffff"
             inkscape:connector-curvature="0"
             d="m 703.201,151.456 h -0.012 c -0.176,0.305 -0.493,0.436 -0.851,0.436 -0.847,0 -1.261,-0.73 -1.261,-1.504 0,-0.756 0.419,-1.453 1.245,-1.453 0.332,0 0.656,0.139 0.837,0.416 h -0.007 0.011 v -1.41 h 0.771 v 3.875 H 703.2 v -0.36 z m -0.673,-1.943 c -0.504,0 -0.679,0.436 -0.679,0.896 0,0.439 0.2,0.898 0.679,0.898 0.511,0 0.661,-0.443 0.661,-0.904 0,-0.455 -0.162,-0.89 -0.661,-0.89 z"
             id="path163" />
          <path
             style="fill:#ffffff"
             inkscape:connector-curvature="0"
             d="m 706.746,148.655 h -1.161 v -0.715 h 3.178 v 0.715 h -1.166 v 3.16 h -0.851 v -3.16 z"
             id="path165" />
          <path
             style="fill:#ffffff"
             inkscape:connector-curvature="0"
             d="m 709.097,147.94 h 2.897 v 0.715 h -2.046 v 0.83 h 1.878 v 0.662 h -1.878 v 0.949 h 2.089 v 0.719 h -2.94 v -3.875 z"
             id="path167" />
          <path
             style="fill:#ffffff"
             inkscape:connector-curvature="0"
             d="m 712.396,147.94 h 1.673 c 1.005,0 1.757,0.629 1.757,1.916 0,1.123 -0.574,1.959 -1.757,1.959 h -1.673 v -3.875 z m 0.852,3.157 h 0.758 c 0.496,0 0.965,-0.303 0.965,-1.16 0,-0.781 -0.268,-1.281 -1.116,-1.281 h -0.606 v 2.441 z"
             id="path169" />
          <path
             style="fill:#ffffff"
             inkscape:connector-curvature="0"
             d="m 718.262,150.599 c 0.022,0.488 0.262,0.709 0.69,0.709 0.311,0 0.56,-0.188 0.608,-0.361 h 0.679 c -0.219,0.662 -0.679,0.945 -1.315,0.945 -0.885,0 -1.434,-0.609 -1.434,-1.477 0,-0.842 0.583,-1.48 1.434,-1.48 0.957,0 1.416,0.803 1.363,1.664 h -2.025 z m 1.254,-0.489 c -0.069,-0.391 -0.237,-0.598 -0.613,-0.598 -0.487,0 -0.63,0.381 -0.641,0.598 h 1.254 z"
             id="path171" />
          <path
             style="fill:#ffffff"
             inkscape:connector-curvature="0"
             d="m 722.078,151.815 h -0.857 l -0.962,-2.807 h 0.811 l 0.592,1.914 h 0.012 l 0.59,-1.914 h 0.769 l -0.955,2.807 z"
             id="path173" />
          <path
             style="fill:#ffffff"
             inkscape:connector-curvature="0"
             d="m 723.768,150.599 c 0.02,0.488 0.259,0.709 0.688,0.709 0.31,0 0.561,-0.188 0.608,-0.361 h 0.679 c -0.216,0.662 -0.679,0.945 -1.314,0.945 -0.885,0 -1.434,-0.609 -1.434,-1.477 0,-0.842 0.582,-1.48 1.434,-1.48 0.957,0 1.418,0.803 1.363,1.664 h -2.024 z m 1.253,-0.489 c -0.071,-0.391 -0.24,-0.598 -0.615,-0.598 -0.487,0 -0.63,0.381 -0.639,0.598 h 1.254 z"
             id="path175" />
          <path
             style="fill:#ffffff"
             inkscape:connector-curvature="0"
             d="m 726.138,149.009 h 0.733 v 0.391 h 0.015 c 0.196,-0.314 0.533,-0.465 0.859,-0.465 0.819,0 1.023,0.459 1.023,1.154 v 1.727 H 728 v -1.586 c 0,-0.463 -0.136,-0.689 -0.494,-0.689 -0.417,0 -0.599,0.232 -0.599,0.803 v 1.473 h -0.77 v -2.808 z"
             id="path177" />
          <path
             style="fill:#ffffff"
             inkscape:connector-curvature="0"
             d="m 730.225,149.009 h 0.564 v 0.516 h -0.564 v 1.389 c 0,0.262 0.063,0.326 0.326,0.326 0.08,0 0.158,-0.006 0.238,-0.021 v 0.604 c -0.128,0.02 -0.298,0.025 -0.449,0.025 -0.473,0 -0.886,-0.109 -0.886,-0.668 v -1.654 h -0.469 v -0.516 h 0.469 v -0.84 h 0.771 v 0.839 z"
             id="path179" />
          <g
             id="g181">
            <g
               id="g183">
              <path
                 style="fill:#cf3330"
                 inkscape:connector-curvature="0"
                 d="m 638.974,135.116 h -3.615 v -3.307 h 11.205 v 3.307 h -3.616 v 9.598 h -3.974 v -9.598 z"
                 id="path185" />
              <path
                 style="fill:#cf3330"
                 inkscape:connector-curvature="0"
                 d="m 647.18,131.81 h 10.875 v 3.307 h -6.898 v 1.609 h 6.898 v 3.074 h -6.898 v 1.607 h 6.901 v 3.307 H 647.18 V 131.81 z"
                 id="path187" />
              <path
                 style="fill:#cf3330"
                 inkscape:connector-curvature="0"
                 d="m 658.725,131.81 h 6.524 c 4.302,0 5.821,3.182 5.821,6.434 0,3.959 -2.095,6.471 -6.597,6.471 h -5.749 V 131.81 z m 3.976,9.597 h 1.554 c 2.479,0 2.838,-2.008 2.838,-3.219 0,-0.812 -0.254,-3.072 -3.126,-3.072 h -1.266 v 6.291 z"
                 id="path189" />
            </g>
            <g
               id="g191">
              <g
                 id="g193">
                <path
                   style="fill:#cf3330"
                   inkscape:connector-curvature="0"
                   d="m 676.784,139.741 -1.214,-2.012 -1.183,2.012 h -2.912 l 2.764,-4.066 -2.663,-3.889 h 2.914 l 1.08,1.922 1.11,-1.922 h 2.913 l -2.663,3.889 2.764,4.066 h -2.91 z"
                   id="path195" />
              </g>
            </g>
          </g>
          <g
             id="g197">
            <path
               style="fill:#ffffff"
               inkscape:connector-curvature="0"
               d="m 691.64,132.802 c 0.885,0.857 1.378,1.832 1.477,2.922 h -1.694 c -0.189,-0.828 -0.566,-1.482 -1.132,-1.969 -0.562,-0.482 -1.355,-0.725 -2.375,-0.725 -1.242,0 -2.244,0.445 -3.01,1.334 -0.767,0.891 -1.147,2.256 -1.147,4.094 0,1.506 0.344,2.727 1.037,3.664 0.69,0.936 1.718,1.404 3.087,1.404 1.262,0 2.218,-0.492 2.879,-1.477 0.349,-0.52 0.61,-1.203 0.783,-2.049 h 1.697 c -0.151,1.354 -0.646,2.488 -1.489,3.404 -1.007,1.102 -2.369,1.652 -4.081,1.652 -1.476,0 -2.716,-0.453 -3.719,-1.357 -1.318,-1.195 -1.979,-3.043 -1.979,-5.541 0,-1.896 0.499,-3.449 1.488,-4.664 1.072,-1.318 2.549,-1.979 4.435,-1.979 1.607,0.002 2.855,0.429 3.743,1.287 z"
               id="path199" />
            <path
               style="fill:#ffffff"
               inkscape:connector-curvature="0"
               d="m 695.654,131.866 h 9.325 v 1.574 h -7.627 v 3.9 h 7.049 v 1.488 h -7.049 v 4.355 h 7.758 v 1.531 h -9.456 v -12.848 z"
               id="path201" />
            <path
               style="fill:#ffffff"
               inkscape:connector-curvature="0"
               d="m 707.646,131.866 h 5.841 c 0.962,0 1.756,0.143 2.379,0.43 1.187,0.547 1.779,1.561 1.779,3.035 0,0.77 -0.159,1.398 -0.478,1.889 -0.317,0.49 -0.762,0.885 -1.333,1.182 0.5,0.203 0.878,0.471 1.131,0.805 0.254,0.332 0.396,0.871 0.426,1.617 l 0.061,1.725 c 0.016,0.488 0.058,0.854 0.123,1.092 0.106,0.41 0.291,0.672 0.561,0.787 v 0.289 H 716 c -0.059,-0.111 -0.104,-0.252 -0.142,-0.428 -0.033,-0.178 -0.063,-0.514 -0.086,-1.016 l -0.104,-2.143 c -0.041,-0.84 -0.344,-1.402 -0.91,-1.688 -0.323,-0.158 -0.831,-0.236 -1.521,-0.236 h -3.852 v 5.51 h -1.739 v -12.85 z m 5.654,5.887 c 0.793,0 1.422,-0.164 1.883,-0.49 0.464,-0.326 0.695,-0.916 0.695,-1.766 0,-0.916 -0.324,-1.539 -0.971,-1.873 -0.346,-0.174 -0.807,-0.262 -1.386,-0.262 h -4.136 v 4.391 h 3.915 z"
               id="path203" />
            <path
               style="fill:#ffffff"
               inkscape:connector-curvature="0"
               d="m 720.375,131.866 h 2.05 l 6.409,10.383 v -10.383 h 1.661 v 12.85 h -1.955 l -6.502,-10.369 v 10.369 h -1.663 v -12.85 z"
               id="path205" />
          </g>
        </g>
      </g>
    </g>
    <path
       style="fill:#ffffff;display:inline"
       inkscape:connector-curvature="0"
       d="m 1511.1219,932.65458 37.7042,32.41701 6.971,-33.67928 78.798,-40.16369 -0.028,-0.0425 4.7503,-34.40998 28.8613,-6.59137 -25.1708,-20.64261 -0.088,0.10392 -33.924,8.24411 -16.28,-33.92087 -1.487,-3.03289 -0.028,0.0339 -61.8968,-25.34508 38.376,89.08035 m 94.494,-15.92897 -22.4725,5.12973 2.9204,-21.1626 19.5521,16.03287 z m -127.7515,-68.12844 55.8648,22.87434 -20.901,58.29907 -34.9638,-81.17341 z m 31.7649,90.09784 -22.9192,63.92912 -0.3431,0.17217 -27.4728,-3.01315 50.7351,-61.08743 z m -19.1024,89.26856 -29.3138,-25.20444 10.8666,1.19181 0,0 15.0771,1.43914 8.8908,-4.42425 -0.028,0.10916 0.088,-0.0387 -5.5712,26.93306 z m -0.3203,-27.07083 44.8241,-125.03074 39.3991,82.10117 -84.2232,42.92957 z m 85.6679,-46.18726 -22.2531,-46.37016 29.6484,-7.1985 -7.3953,53.56866 z"
       id="path207"
       inkscape:export-xdpi="90"
       inkscape:export-ydpi="90" />
  </g>
  <g
     inkscape:groupmode="layer"
     id="layer9"
     inkscape:label="operators"
     style="display:inline">
    <g
       id="operator-0"
       offset-y="0"
       transform="matrix(0.54508129,0,0,0.54508129,106.54052,925.28635)">
      <rect
         id="rect3503"
         height="170.67668"
         width="170.67668"
         y="-0.37909129"
         x="-0.20758456"
         style="fill:#d71f27" />
      <path
         style="fill:#ffffff"
         inkscape:connector-curvature="0"
         d="M 131.7803,37.267728 C 120.25434,37.56805 88.671799,37.718638 85.127619,37.734517 81.584498,37.717443 50.005095,37.567197 38.479152,37.267728 24.540556,36.903209 16.791624,34.199796 16.791624,34.199796 v 5.200409 c 0,0 0.901838,0.93665 2.787723,0.93665 0.121221,0 0.252858,0 0.385604,0 v 2.601144 h 3.27657 v 5.408023 h 16.799 v 11.338322 h -3.069008 v 2.392677 h -13.78268 v 4.991771 h 16.851688 v 68.652098 h 4.888528 V 67.068792 h 80.403461 v 68.652098 h 4.88852 V 67.068792 h 16.85063 V 62.077021 H 133.289 v -2.392677 h -3.06797 V 48.343802 h 16.799 V 42.93595 h 3.27552 v -2.601314 c 0.13283,0 0.26445,0 0.3856,0 1.88483,0 2.78772,-0.93648 2.78772,-0.93648 v -5.200409 c 0,0.0017 -7.74997,2.705462 -21.68857,3.069981 z M 44.927991,59.682295 V 48.343802 h 37.7817 v 13.73117 h -34.50513 v -2.392677 h -3.27657 z m 80.404519,0 h -3.27763 v 2.392677 H 87.547648 v -13.73117 h 37.784862 v 11.338493 z"
         id="path3557" />
    </g>
    <g
       style="display:inline"
       id="operator-1"
       offset-y="0"
       transform="matrix(0.54508129,0,0,0.54508129,220.28973,915.63709)">
      <circle
         transform="translate(-301.25401,-294.87801)"
         style="fill:#d71f27"
         sodipodi:ry="94.079002"
         sodipodi:rx="94.079002"
         sodipodi:cy="388.79901"
         sodipodi:cx="395.33301"
         d="m 489.41201,388.79901 c 0,51.9584 -42.1206,94.079 -94.079,94.079 -51.9584,0 -94.079,-42.1206 -94.079,-94.079 0,-51.9584 42.1206,-94.079 94.079,-94.079 51.9584,0 94.079,42.1206 94.079,94.079 z"
         id="circle3505"
         r="94.079002"
         cy="388.79901"
         cx="395.33301" />
      <path
         d="m 138.35799,50.06899 c -10.94,0.285 -40.917,0.428 -44.281,0.443 -3.363,-0.016 -33.337,-0.158 -44.277,-0.443 -13.23,-0.346 -20.585,-2.912 -20.585,-2.912 v 4.936 c 0,0 0.856,0.889 2.646,0.889 0.115,0 0.24,0 0.366,0 v 2.469 h 3.11 v 5.133 h 15.945 v 10.762 h -2.913 v 2.271 h -13.083 v 4.738 h 15.995 V 143.517 h 4.64 V 78.35499 h 76.317 V 143.517 h 4.639 V 78.35499 h 15.994 v -4.738 h -13.082 v -2.271 h -2.912 v -10.762 h 15.945 v -5.133 h 3.109 v -2.469 c 0.127,0 0.252,0 0.366,0 1.789,0 2.646,-0.889 2.646,-0.889 v -4.936 c 0,0 -7.355,2.567 -20.585,2.912 z m -82.437,21.276 v -10.762 h 35.861 v 13.033 h -32.751 v -2.271 h -3.11 z m 76.317,0 h -3.111 v 2.271 h -32.754 v -13.033 h 35.865 v 10.762 z"
         id="path3603"
         inkscape:connector-curvature="0"
         style="fill:#ffffff" />
    </g>
    <g
       id="operator-2"
       inkscape:label="#g3223"
       offset-y="-16"
       transform="matrix(0.54508129,0,0,0.54508129,343.68085,914.31352)">
      <polygon
         points="799.379,473.027 677.012,298.256 554.642,473.027 "
         id="polygon3189"
         transform="matrix(-1.01891,0,0,1.0904548,814.49526,-325.38635)"
         style="fill:#d71f27" />
      <path
         style="fill:#ffffff"
         inkscape:connector-curvature="0"
         id="path3191"
         d="m 161.54216,91.33055 c -9.1072,0.23679 -34.0619,0.35689 -36.862,0.3681 -2.8,-0.011 -27.752503,-0.13141 -36.859803,-0.3681 -11.0128,-0.2873 -17.137,-2.42408 -17.137,-2.42408 v 4.10972 c 0,0 0.7127,0.73846 2.2031,0.73846 0.094,0 0.1998,0 0.3041,0 v 2.05374 h 2.5879 v 4.27474 h 13.2742 v 8.95792 h -2.4252 v 1.89215 h -10.8883 v 3.94587 h 13.3147 v 54.24366 h 3.8616 v -54.24366 h 63.531603 v 54.24366 h 3.8606 v -54.24366 h 13.3145 v -3.94587 h -10.8905 v -1.89215 h -2.424 v -8.95792 h 13.2742 v -4.27474 h 2.5879 v -2.05374 c 0.1066,0 0.211,0 0.3053,0 1.4892,0 2.2018,-0.73846 2.2018,-0.73846 v -4.10972 c 0,0 -6.1208,2.13678 -17.1347,2.42408 z m -68.625503,17.7105 v -8.95792 H 122.77006 V 110.9332 H 95.506857 v -1.89215 h -2.5902 z m 63.531503,0 h -2.5913 v 1.89215 h -27.2666 v -10.85007 h 29.8568 v 8.95792 z" />
    </g>
  </g>
  <g
     inkscape:groupmode="layer"
     id="completed-success"
     inkscape:label="completed-success"
     style="display:inline">
    <flowRoot
       xml:space="preserve"
       id="flowRoot9161"
       style="font-size:18px;font-style:normal;font-variant:normal;font-weight:normal;font-stretch:normal;text-align:start;line-height:129.99999523%;letter-spacing:0px;word-spacing:0px;writing-mode:lr-tb;text-anchor:start;fill:#000000;fill-opacity:1;stroke:none;font-family:Bitstream Vera Sans;-inkscape-font-specification:Bitstream Vera Sans"
       transform="matrix(6.1708537,0,0,6.1708537,-1716.9434,-1656.9165)"><flowRegion
         id="flowRegion9163"><rect
           id="rect9165"
           width="1390.625"
           height="290.625"
           x="325"
           y="342.5" /></flowRegion><flowPara
         id="flowPara9167"
         style="fill:#ffffff">CHALLENGE COMPLETED</flowPara></flowRoot>    <flowRoot
       xml:space="preserve"
       id="flowRoot4826"
       style="font-size:40px;font-style:normal;font-weight:normal;line-height:125%;letter-spacing:0px;word-spacing:0px;fill:#cf3330;fill-opacity:1;stroke:none;font-family:sans-serif"
       transform="matrix(1.0830584,0,0,1.0830584,-1913.7927,-5.4173166)"><flowRegion
         id="flowRegion4828"><rect
           id="rect4830"
           width="3434.5186"
           height="412.14224"
           x="1858.6807"
           y="92.626038"
           style="fill:#cf3330;fill-opacity:1;stroke:none" /></flowRegion><flowPara
         id="flowPara4832"
         style="font-size:180.00001526px;font-style:normal;font-variant:normal;font-weight:bold;font-stretch:normal;fill:#cf3330;fill-opacity:1;stroke:none;font-family:Arial;-inkscape-font-specification:Arial Bold">BREAK THE CODE</flowPara></flowRoot>  </g>
  <g
     style="display:none"
     inkscape:label="completed-failure"
     id="completed-failure"
     inkscape:groupmode="layer">
    <path
       sodipodi:type="arc"
       style="opacity:0.85;color:#000000;fill:#000000;stroke:#d6412e;stroke-width:3.55096102;stroke-linecap:butt;stroke-linejoin:round;stroke-miterlimit:4;stroke-opacity:1;stroke-dasharray:none;stroke-dashoffset:0;marker:none;visibility:visible;display:inline;overflow:visible;enable-background:accumulate"
       id="path3580"
       sodipodi:cx="929.77966"
       sodipodi:cy="436.3064"
       sodipodi:rx="156.1385"
       sodipodi:ry="156.1385"
       d="m 1085.9182,436.3064 a 156.1385,156.1385 0 1 1 -312.27704,0 156.1385,156.1385 0 1 1 312.27704,0 z"
       transform="matrix(2.9447692,0,0,2.9447692,-1680.2068,-678.51524)" />
    <g
       style="font-size:67.58037567px;font-style:normal;font-variant:normal;font-weight:normal;font-stretch:normal;text-align:start;line-height:129.99999523%;letter-spacing:0px;word-spacing:0px;writing-mode:lr-tb;text-anchor:start;fill:#d6412e;fill-opacity:1;stroke:none;display:inline;font-family:Bitstream Vera Sans;-inkscape-font-specification:Bitstream Vera Sans"
       id="text3560">
      <path
         d="m 978.12193,240.93259 0,6.50065 c -2.5299,-1.20989 -4.91677,-2.11185 -7.16061,-2.70586 -2.24391,-0.59392 -4.41079,-0.8909 -6.50066,-0.89095 -3.62982,5e-5 -6.43467,0.70401 -8.41454,2.11189 -1.95791,1.40796 -2.93686,3.40985 -2.93685,6.00568 -1e-5,2.17791 0.64896,3.82782 1.9469,4.94973 1.31991,1.09997 3.80578,1.99092 7.4576,2.67286 l 4.02578,0.82495 c 4.97171,0.94598 8.63451,2.61789 10.98841,5.01573 2.37584,2.3759 3.56377,5.56572 3.56381,9.56949 -4e-5,4.77375 -1.60595,8.39256 -4.81774,10.85642 -3.18986,2.46387 -7.8756,3.6958 -14.05725,3.6958 -2.33189,0 -4.81775,-0.26399 -7.4576,-0.79196 -2.61786,-0.52797 -5.33472,-1.30893 -8.15056,-2.34287 l 0,-6.86363 c 2.70585,1.51792 5.3567,2.66186 7.95258,3.43181 2.59584,0.76997 5.1477,1.15494 7.65558,1.15494 3.80578,0 6.74262,-0.74795 8.81053,-2.24388 2.06786,-1.49591 3.1018,-3.62979 3.10184,-6.40166 -4e-5,-2.41985 -0.748,-4.31175 -2.24388,-5.67569 -1.47395,-1.36391 -3.90482,-2.38685 -7.29261,-3.06884 l -4.05878,-0.79195 c -4.97175,-0.98993 -8.56856,-2.54084 -10.79043,-4.65276 -2.22188,-2.11185 -3.33282,-5.04869 -3.33282,-8.81052 0,-4.35573 1.52891,-7.78754 4.58676,-10.29545 3.07982,-2.50782 7.31459,-3.76175 12.70432,-3.7618 2.30985,5e-5 4.66372,0.20904 7.06162,0.62697 2.39784,0.41802 4.8507,1.04499 7.3586,1.8809"
         id="path3584"
         inkscape:connector-curvature="0" />
      <path
         d="m 1011.4831,243.83643 c -4.8397,5e-5 -8.6895,1.80395 -11.54934,5.41171 -2.83786,3.60784 -4.25678,8.52457 -4.25677,14.75021 -1e-5,6.20369 1.41891,11.10942 4.25677,14.71721 2.85984,3.60781 6.70964,5.41171 11.54934,5.41171 4.8398,0 8.6675,-1.8039 11.4834,-5.41171 2.8378,-3.60779 4.2568,-8.51352 4.2568,-14.71721 0,-6.22564 -1.419,-11.14237 -4.2568,-14.75021 -2.8159,-3.60776 -6.6436,-5.41166 -11.4834,-5.41171 m 0,-5.41171 c 6.9076,5e-5 12.4293,2.32092 16.5652,6.96263 4.1357,4.61979 6.2036,10.82345 6.2036,18.611 0,7.7656 -2.0679,13.96926 -6.2036,18.611 -4.1359,4.61976 -9.6576,6.92963 -16.5652,6.92963 -6.9296,0 -12.4733,-2.30987 -16.63106,-6.92963 -4.13579,-4.61974 -6.20367,-10.8234 -6.20367,-18.611 0,-7.78755 2.06788,-13.99121 6.20367,-18.611 4.15776,-4.64171 9.70146,-6.96258 16.63106,-6.96263"
         id="path3586"
         inkscape:connector-curvature="0" />
      <path
         d="m 1068.0421,265.48327 c 1.4299,0.484 2.8158,1.51794 4.1578,3.10183 1.3639,1.58394 2.7278,3.76182 4.0918,6.53365 l 6.7646,13.46328 -7.1606,0 -6.3027,-12.63832 c -1.6279,-3.29981 -3.2118,-5.48869 -4.7517,-6.56665 -1.518,-1.07792 -3.5968,-1.61689 -6.2367,-1.61691 l -7.2596,0 0,20.82188 -6.6656,0 0,-49.26636 15.0472,0 c 5.6316,5e-5 9.8334,1.17699 12.6053,3.53081 2.7718,2.35392 4.1577,5.90673 4.1578,10.65843 -10e-5,3.10187 -0.726,5.67573 -2.1779,7.72159 -1.43,2.04591 -3.5199,3.46484 -6.2697,4.25677 m -16.6971,-20.68989 0,17.48906 8.3816,0 c 3.2118,3e-5 5.6316,-0.73693 7.2596,-2.21088 1.6499,-1.49589 2.4748,-3.68477 2.4748,-6.56665 0,-2.88181 -0.8249,-5.04869 -2.4748,-6.50065 -1.628,-1.47388 -4.0478,-2.21084 -7.2596,-2.21088 l -8.3816,0"
         id="path3588"
         inkscape:connector-curvature="0" />
      <path
         d="m 1115.0316,265.48327 c 1.4299,0.484 2.8158,1.51794 4.1578,3.10183 1.3639,1.58394 2.7278,3.76182 4.0917,6.53365 l 6.7647,13.46328 -7.1606,0 -6.3027,-12.63832 c -1.6279,-3.29981 -3.2119,-5.48869 -4.7517,-6.56665 -1.518,-1.07792 -3.5969,-1.61689 -6.2367,-1.61691 l -7.2596,0 0,20.82188 -6.6657,0 0,-49.26636 15.0472,0 c 5.6317,5e-5 9.8335,1.17699 12.6054,3.53081 2.7718,2.35392 4.1577,5.90673 4.1577,10.65843 0,3.10187 -0.726,5.67573 -2.1779,7.72159 -1.4299,2.04591 -3.5198,3.46484 -6.2696,4.25677 m -16.6971,-20.68989 0,17.48906 8.3815,0 c 3.2118,3e-5 5.6317,-0.73693 7.2596,-2.21088 1.6499,-1.49589 2.4749,-3.68477 2.4749,-6.56665 0,-2.88181 -0.825,-5.04869 -2.4749,-6.50065 -1.6279,-1.47388 -4.0478,-2.21084 -7.2596,-2.21088 l -8.3815,0"
         id="path3590"
         inkscape:connector-curvature="0" />
      <path
         d="m 1127.6039,239.31567 7.1606,0 13.6613,20.26092 13.5623,-20.26092 7.1606,0 -17.4231,25.80462 0,23.46174 -6.6986,0 0,-23.46174 -17.4231,-25.80462"
         id="path3592"
         inkscape:connector-curvature="0" />
    </g>
    <g
       style="font-size:67.58037567px;font-style:normal;font-variant:normal;font-weight:normal;font-stretch:normal;text-align:start;line-height:129.99999523%;letter-spacing:0px;word-spacing:0px;writing-mode:lr-tb;text-anchor:start;fill:#d6412e;fill-opacity:1;stroke:none;display:inline;font-family:Bitstream Vera Sans;-inkscape-font-specification:Bitstream Vera Sans"
       id="text3554">
      <path
         d="m 880.43067,939.31567 41.67677,0 0,5.6097 -17.48906,0 0,43.65666 -6.69865,0 0,-43.65666 -17.48906,0 0,-5.6097"
         id="path3567"
         inkscape:connector-curvature="0" />
      <path
         d="m 951.93784,965.48327 c 1.42989,0.484 2.81582,1.51794 4.15778,3.10183 1.36389,1.58394 2.72781,3.76182 4.09178,6.53365 l 6.76463,13.46328 -7.16061,0 -6.30266,-12.63832 c -1.62795,-3.29981 -3.21186,-5.48869 -4.75175,-6.56665 -1.51794,-1.07792 -3.59683,-1.61689 -6.23666,-1.61691 l -7.25962,0 0,20.82188 -6.66564,0 0,-49.26636 15.04719,0 c 5.63168,5e-5 9.83345,1.17699 12.60533,3.53081 2.77181,2.35392 4.15774,5.90673 4.15778,10.65843 -4e-5,3.10187 -0.726,5.67573 -2.17789,7.72159 -1.42996,2.04591 -3.51984,3.46484 -6.26966,4.25677 m -16.69711,-20.68989 0,17.48906 8.38155,0 c 3.21181,3e-5 5.63168,-0.73693 7.25962,-2.21088 1.64988,-1.49589 2.47483,-3.68477 2.47486,-6.56665 -3e-5,-2.88181 -0.82498,-5.04869 -2.47486,-6.50065 -1.62794,-1.47388 -4.04781,-2.21084 -7.25962,-2.21088 l -8.38155,0"
         id="path3569"
         inkscape:connector-curvature="0" />
      <path
         d="m 964.51017,939.31567 7.16061,0 13.66127,20.26092 13.56227,-20.26092 7.16058,0 -17.42303,25.80462 0,23.46174 -6.69864,0 0,-23.46174 -17.42306,-25.80462"
         id="path3571"
         inkscape:connector-curvature="0" />
      <path
         d="m 1050.6356,945.88232 -9.0416,24.51769 18.1161,0 -9.0745,-24.51769 m -3.7618,-6.56665 7.5565,0 18.776,49.26636 -6.9296,0 -4.4877,-12.63832 -22.2079,0 -4.4877,12.63832 -7.0286,0 18.809,-49.26636"
         id="path3573"
         inkscape:connector-curvature="0" />
      <path
         d="m 1112.8372,981.55341 0,-13.23229 -10.8894,0 0,-5.47771 17.4891,0 0,21.15187 c -2.574,1.8259 -5.4118,3.21183 -8.5136,4.15777 -3.1019,0.92395 -6.4127,1.38593 -9.9325,1.38593 -7.6996,0 -13.7272,-2.24388 -18.083,-6.73164 -4.3338,-4.50975 -6.5006,-10.7794 -6.5006,-18.80899 0,-8.05154 2.1668,-14.32119 6.5006,-18.80899 4.3558,-4.50971 10.3834,-6.76459 18.083,-6.76464 3.2118,5e-5 6.2587,0.39603 9.1406,1.18794 2.9038,0.792 5.5766,1.95794 8.0185,3.49781 l 0,7.09462 c -2.4639,-2.08985 -5.0817,-3.66276 -7.8536,-4.71875 -2.7718,-1.0559 -5.6867,-1.58387 -8.7445,-1.58391 -6.0277,4e-5 -10.5594,1.68295 -13.5953,5.04873 -3.0138,3.36585 -4.5207,8.38158 -4.5207,15.04719 0,6.64366 1.5069,11.64839 4.5207,15.01419 3.0359,3.36583 7.5676,5.04874 13.5953,5.04873 2.3539,10e-6 4.4547,-0.19798 6.3027,-0.59396 1.8478,-0.41798 3.5087,-1.05594 4.9827,-1.9139"
         id="path3575"
         inkscape:connector-curvature="0" />
      <path
         d="m 1148.1783,945.88232 -9.0415,24.51769 18.116,0 -9.0745,-24.51769 m -3.7618,-6.56665 7.5566,0 18.776,49.26636 -6.9296,0 -4.4878,-12.63832 -22.2078,0 -4.4877,12.63832 -7.0287,0 18.809,-49.26636"
         id="path3577"
         inkscape:connector-curvature="0" />
      <path
         d="m 1177.9097,939.31567 6.6657,0 0,49.26636 -6.6657,0 0,-49.26636"
         id="path3579"
         inkscape:connector-curvature="0" />
      <path
         d="m 1197.8407,939.31567 8.9755,0 21.8448,41.21479 0,-41.21479 6.4677,0 0,49.26636 -8.9756,0 -21.8448,-41.21479 0,41.21479 -6.4676,0 0,-49.26636"
         id="path3581"
         inkscape:connector-curvature="0" />
    </g>
    <g
       style="display:inline"
       transform="matrix(71.196292,0,0,71.196292,-47041.332,-9063.469)"
       id="g4391">
      <g
         id="g4393">
        <path
           style="fill:#cf3330"
           inkscape:connector-curvature="0"
           d="m 676.784,139.741 -1.214,-2.012 -1.183,2.012 h -2.912 l 2.764,-4.066 -2.663,-3.889 h 2.914 l 1.08,1.922 1.11,-1.922 h 2.913 l -2.663,3.889 2.764,4.066 h -2.91 z"
           id="path4395" />
      </g>
    </g>
  </g>
</svg>
